<?xml version="1.0" encoding="UTF-8" standalone="no"?>
<svg
   id="logo-amp-lr-header"
   class="logo-lr-svg"
   x="0px"
   y="0px"
   width="200px"
   height="35.375px"
   viewBox="0 0 212.5 35.375"
   enable-background="new 0 0 212.5 35.375"
   xml:space="preserve"
   version="1.1"
   sodipodi:docname="logo-lr.svg"
   inkscape:version="1.1 (c68e22c387, 2021-05-23)"
   xmlns:inkscape="http://www.inkscape.org/namespaces/inkscape"
   xmlns:sodipodi="http://sodipodi.sourceforge.net/DTD/sodipodi-0.dtd"
   xmlns="http://www.w3.org/2000/svg"
   xmlns:svg="http://www.w3.org/2000/svg"><defs
   id="defs9" /><sodipodi:namedview
   id="namedview7"
   pagecolor="#ffffff"
   bordercolor="#999999"
   borderopacity="1"
   inkscape:pageshadow="0"
   inkscape:pageopacity="0"
   inkscape:pagecheckerboard="0"
   showgrid="false"
   inkscape:zoom="2.835"
   inkscape:cx="80.246914"
   inkscape:cy="43.209877"
   inkscape:window-width="1366"
   inkscape:window-height="705"
   inkscape:window-x="-8"
   inkscape:window-y="-8"
   inkscape:window-maximized="1"
   inkscape:current-layer="logo-amp-lr-header" />
	<g
   id="g4"
   transform="matrix(0.61403637,0,0,0.65829929,0.13624516,11.879567)"
   style="fill:#ffffff">
		<path
   fill="#ffffff"
   d="m 201.631,24.948 c -1.019,0 -1.93,-0.492 -1.93,-2.905 0,-2.455 0.594,-3.192 2.139,-3.296 l 1.052,-0.071 v 5.575 c -0.247,0.456 -0.631,0.697 -1.261,0.697 m -3.231,2.91 c 2.424,0 3.788,-1.086 4.734,-2.203 h 0.139 c 0.49,1.469 1.896,2.203 4.064,2.203 2.492,0 3.962,-0.877 4.699,-1.437 v -1.054 c -0.348,0 -1.157,-0.104 -1.613,-0.347 -0.663,-0.353 -0.769,-0.842 -0.769,-2.35 v -9.11 c 0,-3.684 -2.946,-4.98 -7.433,-4.98 -5.961,0 -8.451,1.576 -8.451,3.856 0,1.647 1.021,2.418 2.665,2.418 2.001,0 3.018,-0.806 3.188,-3.506 0.076,-0.984 0.357,-1.192 1.161,-1.192 1.437,0 2.105,0.597 2.105,3.788 v 2.768 l -2.771,0.7 c -4.839,1.193 -7.01,2.631 -7.01,5.818 0.002,2.911 1.961,4.628 5.292,4.628 m -13.212,0 c 4.101,0 6.73,-2.103 7.711,-3.507 v -1.224 c -1.401,0.665 -2.733,1.224 -4.804,1.224 -3.996,0 -5.396,-2.765 -5.396,-7.779 0,-5.608 1.96,-6.379 3.435,-6.379 1.124,0 1.298,0.213 1.399,1.399 0.145,1.648 0.774,3.192 2.877,3.192 1.647,0 2.7,-1.122 2.7,-2.735 0,-2.346 -2.382,-3.469 -5.959,-3.469 -5.261,0 -11.114,2.42 -11.114,9.639 0,5.961 3.298,9.639 9.151,9.639 M 170.535,7.425 c 2.031,0 3.607,-1.335 3.607,-3.332 0,-1.996 -1.576,-3.328 -3.607,-3.328 -2.034,0 -3.613,1.332 -3.613,3.328 0,1.997 1.579,3.332 3.613,3.332 m -5.362,20.013 h 11.042 v -1.121 l -0.664,-0.176 c -1.37,-0.353 -1.475,-0.453 -1.475,-2.104 V 13.276 c 0,-1.611 0.035,-2.73 0.139,-4.38 L 173.76,8.58 164.995,9.455 v 0.805 l 1.123,0.841 c 1.051,0.806 1.193,0.947 1.193,2.493 v 10.442 c 0,1.618 -0.073,1.719 -1.473,2.104 l -0.666,0.176 v 1.122 z m -10.796,0 h 11.251 v -1.121 l -0.667,-0.176 c -1.51,-0.385 -1.577,-0.453 -1.577,-2.104 V 5.317 c 0,-2.345 0.105,-4.101 0.105,-4.101 l -0.456,-0.312 -8.83,0.768 V 2.62 l 1.188,0.595 c 1.159,0.598 1.229,0.806 1.229,2.667 v 18.155 c 0,1.618 -0.069,1.719 -1.579,2.104 l -0.664,0.176 z m -10.239,-1.155 c -1.051,0 -1.961,-0.563 -2.417,-1.193 V 12.613 c 0.424,-0.142 1.157,-0.425 2.244,-0.425 2.279,0 3.54,1.507 3.54,6.521 0,6.555 -1.228,7.574 -3.367,7.574 m -0.421,1.575 c 6.138,0 10.694,-3.013 10.694,-10.655 0,-6.24 -3.543,-8.624 -6.837,-8.624 -2.595,0 -4.449,1.297 -5.783,2.522 h -0.175 c 0,0 0.104,-1.542 0.104,-3.642 V 5.317 c 0,-2.345 0.104,-4.101 0.104,-4.101 L 141.37,0.904 132.641,1.672 V 2.62 l 1.193,0.595 c 1.082,0.563 1.119,0.806 1.119,2.667 V 25.51 c 2.145,1.51 4.873,2.348 8.764,2.348 M 119.534,7.249 125.806,6.021 c 1.263,-0.244 1.786,-1.229 1.786,-2.138 0,-1.263 -0.875,-2.453 -2.136,-2.453 -0.771,0 -1.474,0.348 -2.139,1.015 l -4.1,4.101 z m -1.546,20.609 c 2.878,0 4.944,-1.329 6.835,-2.769 h 0.179 l -0.073,2.455 0.457,0.313 8.204,-1.192 v -0.979 l -0.88,-0.352 c -1.155,-0.457 -1.19,-0.629 -1.19,-2.455 V 8.896 l -0.455,-0.316 -8.622,0.875 v 0.805 l 1.12,0.74 c 1.089,0.699 1.192,0.945 1.192,2.488 v 10.2 c -0.595,0.177 -1.437,0.455 -2.493,0.455 -1.327,0 -2.063,-0.594 -2.063,-2.697 V 8.896 l -0.458,-0.316 -8.623,0.875 v 0.805 l 1.123,0.74 c 1.155,0.772 1.193,0.945 1.193,2.488 v 9.674 c 0.001,3.121 1.823,4.696 4.554,4.696 m -16.933,-1.575 c -1.048,0 -1.959,-0.563 -2.415,-1.193 V 12.613 c 0.421,-0.142 1.157,-0.425 2.246,-0.425 2.276,0 3.538,1.507 3.538,6.521 0,6.555 -1.228,7.574 -3.369,7.574 m -11.321,8.483 h 11.188 v -1.12 l -0.916,-0.211 C 98.712,33.152 98.64,33.011 98.64,31.365 v -1.718 c 0,-1.264 -0.07,-2.068 -0.07,-2.068 0.705,0.179 1.822,0.28 2.485,0.28 5.787,0 10.272,-3.013 10.272,-10.655 0,-6.24 -3.534,-8.624 -6.833,-8.624 -2.592,0 -4.417,1.259 -5.924,2.627 H 98.394 L 98.466,8.896 98.011,8.58 89.563,9.455 v 0.805 l 1.123,0.841 c 1.051,0.806 1.191,0.947 1.191,2.493 v 17.77 c 0,1.608 -0.071,1.718 -1.473,2.104 l -0.669,0.177 v 1.121 z m -8.62,-24.68 c 1.788,0 2.313,1.299 2.313,5.54 l -4.908,0.317 c 0.106,-4.418 1.194,-5.857 2.595,-5.857 m 0.351,17.772 c 3.68,0 6.448,-1.854 7.853,-3.539 v -1.223 c -1.367,0.696 -3.049,1.255 -4.98,1.255 -3.61,0 -5.642,-1.291 -5.819,-6.975 h 11.426 c -0.174,-6.342 -3.364,-8.797 -8.48,-8.797 -4.664,0 -9.501,3.294 -9.501,9.639 0,6.134 3.192,9.64 9.501,9.64 M 58.432,15.664 c -0.839,0 -1.193,-0.071 -1.469,-0.107 V 5.108 c 0.241,-0.106 1.017,-0.246 1.857,-0.246 2.522,0 3.12,1.473 3.12,5.397 0,4.244 -1.123,5.405 -3.508,5.405 M 46.691,27.438 H 59.38 V 26.284 L 58.399,26.04 c -1.12,-0.283 -1.437,-0.421 -1.437,-2.81 v -6.097 c 0.276,0.034 1.017,0.071 1.469,0.071 1.019,3.012 3.297,7.923 4.91,10.234 h 9.112 v -1.154 l -0.491,-0.177 c -0.699,-0.245 -0.908,-0.245 -1.297,-0.809 -1.857,-2.66 -3.993,-6.657 -5.224,-9.672 v -0.139 c 3.054,-0.915 4.313,-2.563 4.313,-5.784 0,-4.35 -3.051,-6.556 -10.76,-6.556 H 46.691 V 4.3 l 0.98,0.248 c 1.192,0.28 1.543,0.425 1.543,2.808 v 15.875 c 0,2.389 -0.351,2.526 -1.543,2.81 l -0.98,0.244 z m -16.616,-2.49 c -1.016,0 -1.926,-0.492 -1.926,-2.905 0,-2.455 0.594,-3.192 2.139,-3.296 l 1.048,-0.071 v 5.575 c -0.242,0.456 -0.628,0.697 -1.261,0.697 m -3.224,2.91 c 2.418,0 3.785,-1.086 4.734,-2.203 h 0.139 c 0.491,1.469 1.891,2.203 4.066,2.203 2.487,0 3.965,-0.877 4.699,-1.437 v -1.054 c -0.354,0 -1.159,-0.104 -1.617,-0.347 -0.662,-0.353 -0.769,-0.842 -0.769,-2.35 v -9.11 c 0,-3.684 -2.946,-4.98 -7.43,-4.98 -5.961,0 -8.448,1.576 -8.448,3.856 0,1.647 1.017,2.418 2.664,2.418 2,0 3.016,-0.806 3.187,-3.506 0.073,-0.984 0.354,-1.192 1.158,-1.192 1.439,0 2.101,0.597 2.101,3.788 v 2.768 l -2.769,0.7 c -4.838,1.193 -7.012,2.631 -7.012,5.818 0.001,2.911 1.969,4.628 5.297,4.628 M 0.353,27.438 h 20.542 l 0.63,-9.146 H 20.26 c -1.117,2.629 -1.788,3.855 -2.63,5.22 -1.083,1.787 -1.682,2.21 -4.308,2.21 -2.525,0 -2.665,-0.423 -2.665,-2.979 V 7.355 c 0,-2.383 0.278,-2.527 1.541,-2.808 L 13.393,4.3 V 3.147 H 0.353 V 4.3 l 0.98,0.248 c 1.19,0.28 1.542,0.425 1.542,2.808 v 15.875 c 0,2.389 -0.352,2.526 -1.542,2.81 l -0.98,0.244 z"
   id="path2"
   style="fill:#ffffff" />
	</g>
</svg>
