<?xml version="1.0" standalone="no"?><svg xmlns="http://www.w3.org/2000/svg" viewBox="0 0 1440 320"><path fill="#0099ff" fill-opacity="1" d="M0,96L20,106.7C40,117,80,139,120,154.7C160,171,200,181,240,160C280,139,320,85,360,101.3C400,117,440,203,480,240C520,277,560,267,600,218.7C640,171,680,85,720,69.3C760,53,800,107,840,138.7C880,171,920,181,960,186.7C1000,192,1040,192,1080,176C1120,160,1160,128,1200,101.3C1240,75,1280,53,1320,90.7C1360,128,1400,224,1420,272L1440,320L1440,0L1420,0C1400,0,1360,0,1320,0C1280,0,1240,0,1200,0C1160,0,1120,0,1080,0C1040,0,1000,0,960,0C920,0,880,0,840,0C800,0,760,0,720,0C680,0,640,0,600,0C560,0,520,0,480,0C440,0,400,0,360,0C320,0,280,0,240,0C200,0,160,0,120,0C80,0,40,0,20,0L0,0Z"></path></svg>